
<svg class="normal-image" version="1.1" x="0px" y="0px" viewBox="0 0 350 350" xml:space="preserve" width="350" height="350" xmlns:xlink="http://www.w3.org/1999/xlink" xmlns="http://www.w3.org/2000/svg" xmlns:svg="http://www.w3.org/2000/svg">
  <style type="text/css" id="style1">
    .st18 {
      fill: #ffffff;
    }
    .st28 {
      fill: #ffd29b;
    }
    .st31 {
      fill: none;
      stroke: #f08267;
      stroke-width: 3.0355;
      stroke-miterlimit: 10;
    }
    .st69 {
      fill: #eee;
      stroke: #633803;
      stroke-width: 3.0593;
      stroke-miterlimit: 10;
    }
    .st70 {
      fill: #ccc;
    }
    .st71 {
      fill: url(#SVGID_00000085238591238901966520000006210382880373357714_);
    }
    .st72 {
      fill: url(#SVGID_00000119815366442385299000000013369555578392645815_);
    }
    .st73 {
      fill: url(#SVGID_00000072240865152877071990000009987420618301978265_);
    }
    .st74 {
      fill: #eee;
      stroke: #ed1c24;
      stroke-width: 3.0593;
      stroke-miterlimit: 10;
    }

    .st75 {
      clip-path: url(#SVGID_00000144336425102101581620000012532860952530087615_);
      fill: url(#SVGID_00000094580482503771822980000001001464128264718750_);
    }
    .st76 {
      fill: none;
      stroke: #633803;
      stroke-width: 3.0593;
      stroke-miterlimit: 10;
    }
    .st77 {
      fill: #633803;
    }
    .st78 {
      fill: #663900;
    }
    .st79 {
      fill: #e88b60;
    }
    .st80 {
      fill: #1d0b07;
    }
    .st81 {
      fill: #ffcc95;
    }
    .st82 {
      fill: url(#SVGID_00000155857630338897645840000005501777211817452968_);
    }
    .st83 {
      fill: #f08068;
    }
    .st84 {
      fill: url(#SVGID_00000021118723960189068730000005255269883957477797_);
    }
    .st85 {
      fill: #c55a48;
    }
    .st86 {
      fill: #efa274;
    }
    .st87 {
      fill: url(#SVGID_00000181051440111288269400000009887408878453935037_);
    }
    .st88 {
      fill: url(#SVGID_00000004538242539425479740000012768728617540664459_);
    }

    .st89 {
      fill: url(#SVGID_00000170268859303373301490000004978614747111955381_);
      stroke: #1d120e;
      stroke-width: 1.5785;
      stroke-miterlimit: 10;
    }
    .st90 {
      fill: url(#SVGID_00000047054138812174606910000009999511478531518081_);
    }
    .st91 {
      fill: url(#SVGID_00000182488636634593123280000005039168389380370601_);
    }

    .st92 {
      fill: url(#SVGID_00000133508563120672419520000003092203342881405829_);
      stroke: #1d120e;
      stroke-width: 1.4725;
      stroke-miterlimit: 10;
    }
    .st93 {
      fill: #c55a4a;
    }
    .st94 {
      fill: url(#SVGID_00000068635389352720798140000017396604185364437653_);
    }
    .st95 {
      fill: url(#SVGID_00000156579296968749306860000011372591955912371083_);
    }
    .st96 {
      fill: #ffffff;
      stroke: #6fa5c7;
      stroke-width: 1.6253;
      stroke-linejoin: round;
      stroke-miterlimit: 10;
    }
    .st97 {
      fill: #6fa5c7;
    }
    .st98 {
      fill: #c65849;
    }
    .st99 {
      fill: #f08267;
    }
    .st100 {
      fill: url(#SVGID_00000024696999102086445850000012118253497993697700_);
    }
    .st101 {
      fill: url(#SVGID_00000111892013527726617440000003843406074627996090_);
    }
    .st102 {
      fill: url(#SVGID_00000072246435072487822560000006972769405648007301_);
    }
    .st103 {
      fill: url(#SVGID_00000163050381628142383200000004419338893595288996_);
    }
  </style>
  <g id="g66" transform="translate(-307.97226,-75.495145)">
    <g id="g65">
      <g id="g64">
        <path
          class="st69"
          d="m 384.69,187.74 c 0,0 -12.17,11.18 -13.65,16.28 -1.78,22.46 12.46,52.73 13.65,52.75 1.2,0.02 13.1,-17.67 14.64,-20.05 1.54,-2.37 9.11,-28.47 9.26,-30.86 0.15,-2.39 -23.9,-18.12 -23.9,-18.12 z"
          id="path1"
        />
        <path
          class="st70"
          d="m 386.39,195.21 c 0,0 -6.72,7.47 -8.65,11.87 -1.51,20.66 8.65,31.87 8.65,31.87 0,0 18.88,-6.72 18.8,-9.38 -0.08,-2.66 0.17,-17.18 0,-18.59 -0.17,-1.41 -18.8,-15.77 -18.8,-15.77 z"
          id="path2"
        />
        <path
          class="st28"
          d="m 395.26,220.91 c 0,0 -9.41,12.89 -17.52,30.32 l -9.7,35.88 c 0,0 -5.67,1.97 -12.28,15.47 -6.62,13.5 -1.71,31.39 2.68,38.99 4.39,7.6 17.35,26.41 45.08,45.07 27.73,18.66 42.54,23.01 74.85,20.54 32.31,-2.47 63.65,-28.67 74.72,-47.94 11.07,-19.27 26.57,-109.89 15.06,-125.98 -11.52,-16.09 -71.61,-42.86 -96.43,-41.7 -24.84,1.18 -76.46,29.35 -76.46,29.35 z"
          id="path3"
        />

        <linearGradient
          id="SVGID_00000106844506746660740050000004990194881810508467_"
          gradientUnits="userSpaceOnUse"
          x1="394.89719"
          y1="244.7737"
          x2="432.4985"
          y2="243.83369"
        >
          <stop offset="0" style="stop-color: #ffbe88" id="stop3" />
          <stop offset="1" style="stop-color: #fcac77" id="stop4" />
        </linearGradient>
        <path
          style="
            fill: url(#SVGID_00000106844506746660740050000004990194881810508467_);
          "
          d="m 425.82,224.48 c 0,0 18.16,16.27 6.58,35.55 -11.58,19.28 -52.81,-7.52 -52.81,-7.52 0,0 15.98,-27.93 24.6,-30.26 8.62,-2.33 21.63,2.23 21.63,2.23 z"
          id="path4"
        />

        <linearGradient
          id="SVGID_00000029758292394947621010000017126760711209507764_"
          gradientUnits="userSpaceOnUse"
          x1="444.2908"
          y1="314.54211"
          x2="574.56982"
          y2="326.2406"
        >
          <stop offset="0" style="stop-color: #ffbe88" id="stop5" />
          <stop offset="1" style="stop-color: #fcac77" id="stop6" />
        </linearGradient>
        <path
          style="
            fill: url(#SVGID_00000029758292394947621010000017126760711209507764_);
          "
          d="m 475.98,233.16 c 0,0 -17,7.97 -18.19,28.3 -0.38,6.57 -4.46,42.4 -4.01,76.9 0.26,19.94 -26.24,47.79 -21.37,60.91 3.78,10.21 37.7,8.2 45.97,7.92 51.31,-1.75 78.97,-54.49 78.97,-54.49 0,0 10.97,-53.22 7.68,-65.58 -3.29,-12.36 10.81,-30.86 -12.69,-48.16 -23.5,-17.32 -76.36,-5.8 -76.36,-5.8 z"
          id="path6"
        />
        <path
          class="st28"
          d="m 472.18,313.96 c 0,0 22.62,-8.88 42.49,-3.5 19.87,5.38 23.82,18.58 23.52,24.07 -0.3,5.49 -7.91,27.54 -31.48,45.49 -23.57,17.95 -41.67,28.44 -63.72,24.64 -22.05,-3.8 -76.54,-39.7 -84.54,-63.08 -21.26,-62.13 32.98,-64.78 75.99,-60.86 43.01,3.92 37.74,33.24 37.74,33.24 z"
          id="path7"
        />

        <linearGradient
          id="SVGID_00000114031354213575973890000006896564109968748934_"
          gradientUnits="userSpaceOnUse"
          x1="356.47101"
          y1="329.31"
          x2="388.73349"
          y2="323.75491"
        >
          <stop offset="0" style="stop-color: #fff7d3" id="stop7" />
          <stop offset="1" style="stop-color: #ffd29b" id="stop8" />
        </linearGradient>
        <path
          style="
            fill: url(#SVGID_00000114031354213575973890000006896564109968748934_);
          "
          d="m 408.58,268.41 c -9.87,23.77 -18.99,107.73 -18.99,107.73 0,0 -36.55,-28.88 -37.06,-55.5 -0.51,-26.62 30.23,-52.23 56.05,-52.23 z"
          id="path8"
        />
        <path
          class="st31"
          d="m 395.26,220.91 c 0,0 -9.41,12.89 -17.52,30.32 l -9.7,35.88 c 0,0 -5.67,1.97 -12.28,15.47 -6.62,13.5 -1.71,31.39 2.68,38.99 4.39,7.6 17.35,26.41 45.08,45.07 27.73,18.66 42.54,23.01 74.85,20.54 32.31,-2.47 63.65,-28.67 74.72,-47.94 11.07,-19.27 26.57,-109.89 15.06,-125.98 -11.52,-16.09 -71.61,-42.86 -96.43,-41.7 -24.84,1.18 -76.46,29.35 -76.46,29.35 z"
          id="path9"
        />
        <g id="g17">
          <path
            class="st74"
            d="m 563.12,97.19 c -30.52,-7.61 -71.24,4.23 -107.71,31.37 4.12,-5.98 13.21,-16.65 8.89,-31.45 -9.38,14.15 -21.56,27.45 -46.59,32.83 -25.04,5.38 -40.41,21.07 -39.95,37.68 0.46,16.61 10.97,47.06 59.65,67.51 11.28,-2.92 22.02,-5.31 40.72,-14.99 31.53,3.38 66.37,10.69 84.92,34.83 1.55,5.07 4.48,25.53 -5.87,58.13 10.35,-3.54 24.97,-14.92 24.97,-14.92 7.48,-14.61 18.92,-39.22 21.85,-45.67 2.94,-6.46 5.41,-13.42 -4.64,-19.24 -10.05,-5.82 -24.42,-9.97 -24.42,-9.97 6.03,-7.38 13.44,-27.68 -0.77,-40.91 -14.22,-13.23 -36.16,-17.22 -36.16,-17.22 4.48,-4.46 13.91,-15.07 21.38,-18.81 -11.85,-1.44 -19.88,-0.21 -31.78,5.49 5.38,-7.74 19.63,-18.2 35.29,-23.84 -4.33,-1.33 -26.19,-5.28 -46.67,6.02 8.64,-21.31 38.25,-33.34 46.89,-36.84 z"
            id="path10"
          />
          <g id="g16">
            <g id="g13">
              <defs id="defs10">
                <path
                  id="SVGID_00000134232996269269810510000009802329604289450140_"
                  d="m 563.12,97.19 c -30.52,-7.61 -71.24,4.23 -107.71,31.37 4.12,-5.98 13.21,-16.65 8.89,-31.45 -9.38,14.15 -21.56,27.45 -46.59,32.83 -25.04,5.38 -40.41,21.07 -39.95,37.68 0.46,16.61 10.97,47.06 59.65,67.51 11.28,-2.92 22.02,-5.31 40.72,-14.99 31.53,3.38 66.37,10.69 84.92,34.83 1.55,5.07 4.48,25.53 -5.87,58.13 10.35,-3.54 24.97,-14.92 24.97,-14.92 7.48,-14.61 18.92,-39.22 21.85,-45.67 2.94,-6.46 5.41,-13.42 -4.64,-19.24 -10.05,-5.82 -24.42,-9.97 -24.42,-9.97 6.03,-7.38 13.44,-27.68 -0.77,-40.91 -14.22,-13.23 -36.16,-17.22 -36.16,-17.22 4.48,-4.46 13.91,-15.07 21.38,-18.81 -11.85,-1.44 -19.88,-0.21 -31.78,5.49 5.38,-7.74 19.63,-18.2 35.29,-23.84 -4.33,-1.33 -26.19,-5.28 -46.67,6.02 8.64,-21.31 38.25,-33.34 46.89,-36.84 z"
                />
              </defs>
              <clipPath
                id="SVGID_00000119091086970772246040000000232624810604822693_"
              >
                <use
                  xlink:href="#SVGID_00000134232996269269810510000009802329604289450140_"
                  style="overflow: visible"
                  id="use10"
                />
              </clipPath>

              <radialGradient
                id="SVGID_00000114047348504151391890000016393599043257518241_"
                cx="493.14511"
                cy="237.5775"
                r="118.995"
                fx="490.45279"
                fy="235.85809"
                gradientTransform="matrix(1.0049,0,0,1,-1.7951,0)"
                gradientUnits="userSpaceOnUse"
              >
                <stop offset="0.3889" style="stop-color: #a86900" id="stop10" />
                <stop offset="0.5141" style="stop-color: #a36300" id="stop11" />
                <stop offset="0.6776" style="stop-color: #945300" id="stop12" />
                <stop offset="0.7728" style="stop-color: #894600" id="stop13" />
              </radialGradient>

              <path
                style="fill: #cccccc"
                d="m 435.92,234.89 c -14.42,-8.29 -38.02,-32.18 -36.88,-55.76 0.43,-8.92 2.99,-17.94 11.95,-25.53 8.96,-7.59 33.38,-17.53 38.12,-26.86 -4.69,9.59 -10.87,17.02 -18.49,25.17 -7.62,8.15 -10.77,18.15 -11.74,27.89 -0.98,9.74 3.04,19.74 3.04,19.74 1.18,-8.82 2.42,-21.17 14.01,-36.63 11.59,-15.46 22.41,-23.99 36.93,-31.45 14.53,-7.46 35.16,-15.3 51.62,-18.38 -13.21,9.61 -31.32,23.45 -40.33,55.9 8.96,-14.07 20.9,-30 34.44,-36.03 -6.08,10.12 -13.65,19.73 -20.07,44.11 6.1,-5.92 26.59,-22.84 48.84,-21.3 -12.67,12.23 -19.01,18.53 -24.19,24.61 9.58,-1.31 34.08,-5.15 41.96,14.07 7.88,19.22 -2.5,33.29 -7.42,41.91 5.72,-4.31 17.93,-8.61 26.58,2.77 8.65,11.38 0.31,30.68 -13.52,42.37 4.48,-1.69 15.07,-8.77 15.07,-8.77 -3.17,10.92 -8.27,26.3 -8.27,26.3 l -11.67,6.54 c -3.71,-5.92 -8.04,-12.76 -8.04,-12.76 0,0 2.16,-17.53 2.32,-27.07 0.16,-9.54 -13.14,-22.76 -22.72,-26.14 -9.58,-3.38 -56.25,-14.15 -67.69,-9.23 -11.44,4.9 -33.85,4.53 -33.85,4.53 z"
                clip-path="url(#SVGID_00000119091086970772246040000000232624810604822693_)"
                id="path13"
              />
            </g>
            <path
              class="st76"
              d="m 563.12,97.19 c -30.52,-7.61 -71.24,4.23 -107.71,31.37 4.12,-5.98 13.21,-16.65 8.89,-31.45 -9.38,14.15 -21.56,27.45 -46.59,32.83 -25.04,5.38 -40.41,21.07 -39.95,37.68 0.46,16.61 10.97,47.06 59.65,67.51 11.28,-2.92 22.02,-5.31 40.72,-14.99 31.53,3.38 66.37,10.69 84.92,34.83 1.55,5.07 4.48,25.53 -5.87,58.13 10.35,-3.54 24.97,-14.92 24.97,-14.92 7.48,-14.61 18.92,-39.22 21.85,-45.67 2.94,-6.46 5.41,-13.42 -4.64,-19.24 -10.05,-5.82 -24.42,-9.97 -24.42,-9.97 6.03,-7.38 13.44,-27.68 -0.77,-40.91 -14.22,-13.23 -36.16,-17.22 -36.16,-17.22 4.48,-4.46 13.91,-15.07 21.38,-18.81 -11.85,-1.44 -19.88,-0.21 -31.78,5.49 5.38,-7.74 19.63,-18.2 35.29,-23.84 -4.33,-1.33 -26.19,-5.28 -46.67,6.02 8.64,-21.31 38.25,-33.34 46.89,-36.84 z"
              id="path14"
            />
            <g id="g15">
              <path
                class="st77"
                d="m 477.52,218.73 c 12.67,-5.69 24.14,-15.04 31.16,-27.16 -1.54,3.2 -3.38,6.25 -5.49,9.13 -6.52,8.58 -14.88,15.82 -24.46,20.84 0,0 -1.21,-2.81 -1.21,-2.81 z"
                id="path15"
              />
            </g>
          </g>
        </g>
        <g id="g18">
          <path
            class="st78"
            d="m 471.71,235.9 c 11.9,-18.38 28.74,-25.53 48.37,-22.15 19.63,3.38 28.36,16.61 29.83,22.15 -1.24,5.46 -9.74,14.23 -13.99,17.69 -8.5,-13.61 -27.74,-27.07 -64.21,-17.69 z"
            id="path17"
          />
          <path
            class="st78"
            d="m 393.82,231.44 c 9.27,-6.97 31.73,-7.38 42.34,12.82 -0.82,-19.27 -11.02,-49.72 -46.16,-36.19 -1.02,5.22 -0.3,15.48 3.82,23.37 z"
            id="path18"
          />
        </g>
        <path
          class="st79"
          d="m 532.57,317.65 v 1.79 l 6.29,6.49 c 0,0 9.52,-21.62 11.17,-28.69 0,0 7.57,-2.5 7.7,-2.76 0.13,-0.26 2.95,-8.79 3.34,-12.39 0.39,-3.59 -4.69,-6.23 -4.69,-6.23 l -7.9,9.89 -8.09,15.15 z"
          id="path19"
        />
        <path
          class="st80"
          d="m 541.67,296.84 17.46,12.92 5.38,-5.01 -9.44,-18.24 c 0,0 -6.33,2.05 -6.48,2.05 z"
          id="path20"
        />
        <g id="g31">
          <path
            class="st81"
            d="m 545.18,356.46 5.22,-35.76 c 6.58,-9.04 23.42,-33.76 51,-27.38 13.22,3.06 13.54,32.82 -1.53,51.82 -15.07,19 -37.85,28.72 -54.69,11.32 z"
            id="path21"
          />

          <linearGradient
            id="SVGID_00000071549730963541794110000001669806168629754275_"
            gradientUnits="userSpaceOnUse"
            x1="572.20282"
            y1="287.86731"
            x2="581.70789"
            y2="318.24249"
          >
            <stop offset="0.2063" style="stop-color: #fef4d1" id="stop21" />
            <stop offset="0.4088" style="stop-color: #fef1cc" id="stop22" />
            <stop offset="0.6454" style="stop-color: #fee8be" id="stop23" />
            <stop offset="0.8981" style="stop-color: #ffd9a7" id="stop24" />
            <stop offset="1" style="stop-color: #ffd29b" id="stop25" />
          </linearGradient>
          <path
            style="
              fill: url(#SVGID_00000071549730963541794110000001669806168629754275_);
            "
            d="m 550.73,321.72 c -0.87,2 0,4.41 2.01,5.19 1.54,0.6 3.78,0.65 6.67,-0.27 6.36,-2.02 14.9,-10.15 19.79,-13 4.88,-2.85 12.72,-4.46 15.87,-0.93 3.15,3.53 2.79,16 8.19,16.14 5.4,0.15 6.72,-4.29 6.72,-4.29 0.91,-5.89 5.69,-28.35 -11.39,-32.07 -16.41,-3.58 -42.67,17.35 -47.86,29.23 z"
            id="path25"
          />
          <g id="g26">
            <path
              class="st83"
              d="m 550.13,321.17 c 5.79,-13.84 20.81,-25.98 35.23,-29.87 6.87,-1.8 15,-1.49 21.01,2.77 4.31,3.32 6.04,9.03 6.59,13.99 1.54,16.12 -5.42,32 -16.37,43.61 -6.76,7.36 -15.59,13.23 -25.58,14.91 -10.48,2.29 -20.38,-1.88 -26.35,-10.68 2.97,2.55 6.12,4.78 9.54,6.3 6.83,3.23 14.7,2.44 21.62,-0.1 10.71,-3.9 18.93,-12.37 25.36,-21.64 6.14,-9.3 9.65,-20.87 8.54,-32.04 -0.56,-4.49 -1.87,-8.98 -5.35,-11.73 -5.31,-3.57 -12.1,-3.75 -18.22,-2.24 -14.71,3.95 -26.81,14.73 -36.02,26.72 z"
              id="path26"
            />
          </g>

          <linearGradient
            id="SVGID_00000043440532615610539420000004469208768358549688_"
            gradientUnits="userSpaceOnUse"
            x1="559.1463"
            y1="335.16391"
            x2="597.81873"
            y2="334.34979"
          >
            <stop offset="0.5136" style="stop-color: #ed8353" id="stop26" />
            <stop
              offset="0.5706"
              style="stop-color: #f08a5a; stop-opacity: 0.9638"
              id="stop27"
            />
            <stop
              offset="0.7432"
              style="stop-color: #f69a69; stop-opacity: 0.8543"
              id="stop28"
            />
            <stop
              offset="0.8759"
              style="stop-color: #f8a06e; stop-opacity: 0.77"
              id="stop29"
            />
          </linearGradient>
          <path
            style="
              fill: url(#SVGID_00000043440532615610539420000004469208768358549688_);
            "
            d="m 563.84,352.95 c 14.55,2.38 34.84,-9.48 32.06,-30.74 -0.7,-5.32 -8.55,-7.49 -14.71,-4.64 -6.16,2.85 -12.87,11.27 -12.87,11.27 6.26,0.02 8.93,2.68 7.82,8.76 -1.11,6.08 -8.99,13.23 -12.3,15.35 z"
            id="path29"
          />
          <g id="g30">
            <path
              class="st85"
              d="m 563.84,352.69 c 4.68,-3.1 8.12,-8.03 10.28,-13.07 2.05,-5.3 1.18,-10.21 -5.57,-9.09 0,0 -3.59,0.57 -3.59,0.57 l 1.89,-3.15 c 3.67,-5.82 8.94,-10.32 15.54,-12.41 6.77,-2.01 15.67,1.91 13.86,10.05 -0.32,-6.99 -7.1,-9.25 -12.97,-7.23 -5.37,2.11 -10.26,6.62 -13.48,11.35 0,0 -1.7,-2.58 -1.7,-2.58 3.31,-0.5 7.68,0.45 9.17,3.9 3.2,7.94 -6,19.59 -13.43,21.66 z"
              id="path30"
            />
          </g>
        </g>
        <path
          class="st86"
          d="m 450.04,302.09 c -8.99,-3.44 -18.55,-3.33 -18.55,-3.33 l -1.17,3.97 c 0,0 -6.79,-5.16 -5.79,-6.17 1,-1.01 3.22,-4.22 3.22,-4.22 0,0 11.32,0.58 11.9,0.7 0.58,0.12 7.7,2.23 8.17,3.01 0.47,0.78 2.28,4.28 2.22,4.46 -0.06,0.18 0,1.58 0,1.58 z"
          id="path31"
        />
        <path
          class="st14"
          d="m 429.59,281.05 c 0,0 5.23,-0.98 11.92,0.41 6.7,1.39 10.12,2.69 10.12,2.69 v 17.13 c 0,0 -5.39,-4.45 -13.88,-5.65 -8.49,-1.2 -11.35,-0.83 -11.35,-0.83 z"
          id="path32"
        />
        <path
          class="st86"
          d="m 475.42,316.47 1.57,0.79 c 0,0 -3.2,2.98 -4.31,4.73 0,0 -15.17,-3.97 -19.9,-6.42 v -4.47 z"
          id="path33"
        />

        <linearGradient
          id="SVGID_00000119088591036552712810000010727982433146703758_"
          gradientUnits="userSpaceOnUse"
          x1="502.24771"
          y1="308.85971"
          x2="502.60901"
          y2="325.29959"
        >
          <stop offset="0" style="stop-color: #fff7d3" id="stop33" />
          <stop offset="1" style="stop-color: #ffd29b" id="stop34" />
        </linearGradient>
        <path
          style="
            fill: url(#SVGID_00000119088591036552712810000010727982433146703758_);
          "
          d="m 479.36,315.49 c -4.98,3.55 -7.06,7.72 -7.06,7.72 l -2.8,5.7 66.3,-3.81 c 0,0 -4.06,-8.49 -14.09,-12.38 -10.03,-3.87 -26.35,-7.48 -42.35,2.77 z"
          id="path34"
        />
        <path
          class="st14"
          d="m 474.94,319.14 c 0,0 -17.05,-2.86 -25.79,-8.05 0,0 -0.39,-17.62 0.94,-29.92 1.33,-12.3 4.5,-22.33 6.8,-23.97 2.29,-1.65 10.59,-3.76 33.16,-1.72 22.56,2.04 45.75,8.77 55.93,13.08 10.18,4.31 11.52,7.21 11.36,9.32 -0.16,2.11 -2.27,8.62 -2.27,8.62 l -10.42,11.28 -9.56,24.2 -9.41,-7.8 c 0,0 -12.05,-6.21 -24.11,-5.27 -12.07,0.94 -24.5,7.07 -26.63,10.23 z"
          id="path35"
        />
        <path
          class="st18"
          d="m 537.34,285.33 c 0,0 -8,22.77 -11.67,28.85 0,0 -10.32,-6.75 -23.41,-5.89 -13.08,0.85 -18.91,4.86 -18.91,4.86 0,0 -18.07,-2.67 -27.55,-6.67 0,0 3.45,-26.87 7.99,-39.4 0,0 25.78,-0.24 47.55,6.5 16.73,5.17 23.09,9.34 25.15,10.99 0.62,0.49 0.85,0.76 0.85,0.76 z"
          id="path36"
        />

        <linearGradient
          id="SVGID_00000072964419296885070380000018200113221741273529_"
          gradientUnits="userSpaceOnUse"
          x1="526.10278"
          y1="300.4429"
          x2="460.4574"
          y2="314.5434"
        >
          <stop offset="0" style="stop-color: #c0e7ee" id="stop36" />
          <stop offset="1" style="stop-color: #f0fafb" id="stop37" />
        </linearGradient>
        <path
          style="
            fill: url(#SVGID_00000072964419296885070380000018200113221741273529_);
          "
          d="m 537.34,285.33 c 0,0 -8,22.77 -11.67,28.85 0,0 -10.32,-6.75 -23.41,-5.89 -13.08,0.85 -18.91,4.86 -18.91,4.86 0,0 -18.07,-2.67 -27.55,-6.67 l 80.68,-21.92 c 0.63,0.5 0.86,0.77 0.86,0.77 z"
          id="path37"
        />

        <linearGradient
          id="SVGID_00000091006821191563531730000015190060069514301623_"
          gradientUnits="userSpaceOnUse"
          x1="491.8468"
          y1="291.32339"
          x2="491.8468"
          y2="305.37741"
        >
          <stop offset="0" style="stop-color: #1d120e" id="stop38" />
          <stop offset="1" style="stop-color: #0087c3" id="stop39" />
        </linearGradient>

        <path
          style="
            fill: url(#SVGID_00000091006821191563531730000015190060069514301623_);
            stroke: #1d120e;
            stroke-width: 1.5785;
            stroke-miterlimit: 10;
          "
          d="m 505.63,296.15 c 0,5.01 -2.1,9.46 -5.38,12.3 -4.3,0.36 -8.4,1.3 -12.11,2.65 -5.82,-1.82 -10.08,-7.82 -10.08,-14.95 0,-8.57 6.17,-15.52 13.78,-15.52 7.62,0 13.79,6.95 13.79,15.52 z"
          id="path39"
        />
        <ellipse
          class="st14"
          cx="491.60001"
          cy="296.56"
          rx="7.6100001"
          ry="8.25"
          id="ellipse39"
        />
        <circle
          class="st18"
          cx="497.89001"
          cy="302.39999"
          r="2.4100001"
          id="circle39"
        />
        <ellipse
          class="st18"
          cx="485.64001"
          cy="288.34"
          rx="6.2800002"
          ry="7.71"
          id="ellipse40"
        />

        <linearGradient
          id="SVGID_00000041256137864990434630000003582261876934421127_"
          gradientUnits="userSpaceOnUse"
          x1="394.2052"
          y1="305.77151"
          x2="369.98569"
          y2="304.71631"
        >
          <stop offset="0" style="stop-color: #faa36e" id="stop40" />
          <stop offset="1" style="stop-color: #ffd29b" id="stop41" />
        </linearGradient>
        <path
          style="
            fill: url(#SVGID_00000041256137864990434630000003582261876934421127_);
          "
          d="m 368.05,299.53 c 0,0 0.08,2.37 0.63,3.05 0.55,0.68 8.27,3.4 16.81,5.81 8.54,2.41 11.59,2.61 11.59,2.61 l 0.4,-4.5 z"
          id="path41"
        />
        <path
          class="st14"
          d="m 431.38,280.47 c -2.83,10.42 -4.08,16.14 -5.1,18.49 0,0 -10.55,-6.11 -17.69,-2.55 -7.15,3.55 -10.78,11.56 -10.78,11.56 0,0 -2.83,-0.63 -6.53,-1.48 -4.84,-1.1 -11.2,-2.57 -14.66,-3.46 -6.12,-1.57 -11.21,-3.76 -11.98,-5.25 -0.17,-0.32 -0.29,-1.15 -0.38,-2.33 -0.34,-4.41 -0.17,-13.65 0.13,-18.91 0.4,-6.65 0.42,-10.42 0.42,-10.42 0,0 -5.25,-1.06 -5.55,-2.19 -0.3,-1.12 0.45,-12.68 0.9,-16.43 0.45,-3.75 1.8,-4.2 8.03,-4.27 6.23,-0.07 24.41,1.59 40.15,4.64 15.74,3.06 24.51,6.67 24.83,7.92 0.32,1.26 1.03,14.27 -1.79,24.68 z"
          id="path42"
        />
        <path
          class="st18"
          d="m 424.4,269.78 c -0.28,6.9 -1.15,18.42 -3.82,26.8 -20.42,-1.36 -20.61,4.71 -20.61,4.71 0,0 -18.54,-3.07 -26.17,-7.75 -0.06,-0.04 -0.12,-0.07 -0.18,-0.11 0,0 -1.08,-21.8 2.77,-36.45 0,0 14.72,-1.17 30.27,1.87 15.55,3.05 17.87,5 17.87,5 0,0 0.01,2.34 -0.13,5.93 z"
          id="path43"
        />

        <linearGradient
          id="SVGID_00000067203059734644077420000008597303748316712369_"
          gradientUnits="userSpaceOnUse"
          x1="423.65479"
          y1="282.15189"
          x2="387.74179"
          y2="299.6618"
        >
          <stop offset="0" style="stop-color: #c0e7ee" id="stop43" />
          <stop offset="1" style="stop-color: #f0fafb" id="stop44" />
        </linearGradient>
        <path
          style="
            fill: url(#SVGID_00000067203059734644077420000008597303748316712369_);
          "
          d="m 424.4,269.78 c -0.28,6.9 -1.15,18.42 -3.82,26.8 -20.42,-1.36 -20.61,4.71 -20.61,4.71 0,0 -18.54,-3.07 -26.17,-7.75 z"
          id="path44"
        />

        <linearGradient
          id="SVGID_00000091729943132884299770000000180997015135259264_"
          gradientUnits="userSpaceOnUse"
          x1="406.65649"
          y1="281.98029"
          x2="406.65649"
          y2="294.76581"
        >
          <stop offset="0" style="stop-color: #1d120e" id="stop45" />
          <stop offset="1" style="stop-color: #0087c3" id="stop46" />
        </linearGradient>

        <path
          style="
            fill: url(#SVGID_00000091729943132884299770000000180997015135259264_);
            stroke: #1d120e;
            stroke-width: 1.4725;
            stroke-miterlimit: 10;
          "
          d="m 419.51,286.73 c 0,3.37 -1.01,6.46 -2.72,8.91 -0.32,0.46 -4.23,-0.31 -7.79,0.66 -3.8,1.04 -7.26,3.81 -7.55,3.66 -4.5,-2.25 -7.64,-7.33 -7.64,-13.23 0,-8 5.75,-14.48 12.86,-14.48 7.09,0 12.84,6.48 12.84,14.48 z"
          id="path46"
        />
        <ellipse
          class="st14"
          cx="406.42999"
          cy="287.10999"
          rx="7.0999999"
          ry="7.6999998"
          id="ellipse46"
        />
        <circle
          class="st18"
          cx="412.29001"
          cy="292.56"
          r="2.25"
          id="circle46"
        />
        <ellipse
          class="st18"
          cx="400.87"
          cy="279.45001"
          rx="5.8600001"
          ry="7.1900001"
          id="ellipse47"
        />
        <g id="g47">
          <path
            class="st93"
            d="m 472.96,321.57 c 3.19,-5.37 8.84,-8.86 14.51,-11.23 11.58,-4.7 25.4,-4.47 36.4,1.71 5.43,3.05 10.07,7.42 13.48,12.59 -4.34,-4.36 -9.21,-8 -14.57,-10.51 -10.76,-5.1 -23.26,-5.29 -34.52,-1.69 -5.66,1.9 -11.27,4.61 -15.3,9.13 z"
            id="path47"
          />
        </g>

        <linearGradient
          id="SVGID_00000140716052003160558430000016333397199457422465_"
          gradientUnits="userSpaceOnUse"
          x1="500.1369"
          y1="325.7876"
          x2="489.48318"
          y2="346.46829"
        >
          <stop offset="0" style="stop-color: #faa36e" id="stop47" />
          <stop offset="1" style="stop-color: #ffd29b" id="stop48" />
        </linearGradient>
        <path
          style="
            fill: url(#SVGID_00000140716052003160558430000016333397199457422465_);
          "
          d="m 476.25,341.72 c 3.84,-9.92 10.57,-14.74 17.59,-14.48 7.02,0.26 9.49,4.6 10.5,9.96 1.01,5.36 -0.3,16.22 -7.04,22.35 -6.74,6.13 -21.05,-17.83 -21.05,-17.83 z"
          id="path48"
        />

        <linearGradient
          id="SVGID_00000059309021861422131400000007403504780069095318_"
          gradientUnits="userSpaceOnUse"
          x1="442.76031"
          y1="401.15771"
          x2="445.58041"
          y2="389.87741"
        >
          <stop offset="0" style="stop-color: #fff7d3" id="stop49" />
          <stop offset="1" style="stop-color: #ffd29b" id="stop50" />
        </linearGradient>
        <path
          style="
            fill: url(#SVGID_00000059309021861422131400000007403504780069095318_);
          "
          d="m 422.99,379.41 c 1.68,8.3 3.13,18.13 18.02,19.64 14.88,1.51 30.86,-5.38 29.45,-8.83 -1.41,-3.45 -9.87,-13.16 -9.87,-13.16 z"
          id="path50"
        />
        <g id="g54">
          <path
            class="st96"
            d="m 409.89,340.94 8.87,17.11 -4.98,18.05 c 16.81,9.34 25.32,10.94 35.89,10.48 11.83,-0.52 36.1,-11.31 50.94,-55.81 -13.07,9.64 -49.64,28.75 -90.72,10.17 z"
            id="path51"
          />
          <g id="g52">
            <path
              class="st97"
              d="m 419.31,357.45 c 0.94,0.75 2.79,1.2 4.07,1.56 4.63,1.14 9.38,1.85 14.15,2.04 -4.81,0.21 -9.65,-0.1 -14.41,-0.85 -1.78,-0.39 -3.24,-0.44 -4.92,-1.56 0,0 1.11,-1.19 1.11,-1.19 z"
              id="path52"
            />
          </g>
          <g id="g53">
            <path
              class="st97"
              d="m 463.99,361.06 c 8.95,-0.81 19.12,-1.38 26.03,-7.74 0,0 1.12,1.18 1.12,1.18 -7.51,6.22 -17.92,6.27 -27.15,6.56 z"
              id="path53"
            />
          </g>
        </g>
        <g id="g55">
          <path
            class="st98"
            d="m 388.73,327.92 c 28.01,21.58 67.66,26.02 98.93,8.96 4.4,-2.34 8.63,-4.99 12.69,-7.89 0,0 1.77,2.41 1.77,2.41 -4.15,3.02 -8.47,5.8 -13,8.24 -32.07,17.5 -73.25,12.67 -100.39,-11.72 z"
            id="path54"
          />
        </g>
        <g id="g56">
          <path
            class="st98"
            d="m 488.47,327.92 c 7.98,-4.26 16.22,-1.19 16.98,8.3 0.23,2.45 -0.13,4.85 -0.8,7.14 -2.8,-11.45 -3.2,-15.22 -16.18,-15.44 z"
            id="path55"
          />
        </g>
        <g id="g57">
          <path
            class="st99"
            d="m 424.67,387.71 c 3.88,7.5 11.86,10 19.74,9.67 7.99,-0.14 15.88,-2.51 23.72,-4.17 -3.56,2.12 -7.35,3.81 -11.27,5.17 -3.99,1.16 -8.09,2.24 -12.38,2.25 -8.48,0.42 -18.29,-3.76 -19.81,-12.92 z"
            id="path56"
          />
        </g>

        <linearGradient
          id="SVGID_00000178896633884891720960000017579457405039968388_"
          gradientUnits="userSpaceOnUse"
          x1="432.9628"
          y1="320.43951"
          x2="399.63251"
          y2="318.9874"
        >
          <stop offset="0" style="stop-color: #faa36e" id="stop57" />
          <stop offset="1" style="stop-color: #ffd29b" id="stop58" />
        </linearGradient>
        <path
          style="
            fill: url(#SVGID_00000178896633884891720960000017579457405039968388_);
          "
          d="m 397.74,306.49 c 14.45,14.35 39.49,20.23 39.49,20.23 0,0 -4.99,6.22 -17.16,5.57 -12.17,-0.66 -17.67,-6.95 -21.07,-15.11 -3.4,-8.16 -1.26,-10.69 -1.26,-10.69 z"
          id="path58"
        />
        <g id="g59">
          <path
            class="st93"
            d="m 432.4,306.27 c -5.22,-5.16 -11.34,-9.07 -18.71,-8.85 -9.6,0.11 -15.64,7.41 -14.23,16.81 1.08,9.05 9.68,14.93 18.17,16.42 3.65,0.71 7.31,0.85 11.08,0.98 -1.77,0.8 -3.66,1.29 -5.6,1.55 -11.8,1.63 -25.63,-5.84 -27.2,-18.46 -0.96,-6.16 0.82,-13.02 6,-16.99 5.02,-3.79 11.75,-4.58 17.76,-3.27 5.86,1.44 10.99,6.04 12.73,11.81 z"
            id="path59"
          />
        </g>

        <linearGradient
          id="SVGID_00000084502590093909482140000005088045329263068346_"
          gradientUnits="userSpaceOnUse"
          x1="395.8208"
          y1="244.101"
          x2="396.99579"
          y2="261.41321"
        >
          <stop offset="0" style="stop-color: #655d5a" id="stop59" />
          <stop offset="1" style="stop-color: #1d120e" id="stop60" />
        </linearGradient>
        <path
          style="
            fill: url(#SVGID_00000084502590093909482140000005088045329263068346_);
          "
          d="m 362.26,259.06 c 0,0 3.12,-9.32 4.35,-9.88 1.23,-0.56 14.86,-0.52 35.07,2.77 20.21,3.29 28.04,8.15 28.04,8.15 0,0 0.78,2.74 0.78,2.27 0,-0.47 0.86,-5.17 0.86,-5.17 0,0 0.78,-3.73 -28.59,-8.29 -29.38,-4.56 -38.07,-3.85 -38.93,-3.77 -0.86,0.08 -1.8,1.65 -2.12,3.68 -0.3,2.04 0.54,10.24 0.54,10.24 z"
          id="path60"
        />

        <linearGradient
          id="SVGID_00000149356242961378481750000005906928895574446506_"
          gradientUnits="userSpaceOnUse"
          x1="355.80481"
          y1="286.35699"
          x2="373.27371"
          y2="298.81241"
        >
          <stop offset="0" style="stop-color: #655d5a" id="stop61" />
          <stop offset="1" style="stop-color: #1d120e" id="stop62" />
        </linearGradient>
        <path
          style="
            fill: url(#SVGID_00000149356242961378481750000005906928895574446506_);
          "
          d="m 391.27,306.49 c -4.84,-1.1 -11.2,-2.57 -14.66,-3.46 -6.12,-1.57 -11.21,-3.76 -11.98,-5.25 -0.17,-0.32 -0.29,-1.15 -0.38,-2.33 0.61,-1.04 1.36,-1.25 1.43,-1.14 0.11,0.18 13.04,6 19.44,8.46 3.57,1.38 5.34,2.77 6.15,3.72 z"
          id="path62"
        />

        <linearGradient
          id="SVGID_00000115476925131693172530000009427750439713679034_"
          gradientUnits="userSpaceOnUse"
          x1="507.08279"
          y1="260.13309"
          x2="504.7327"
          y2="271.17841"
        >
          <stop offset="0" style="stop-color: #655d5a" id="stop63" />
          <stop offset="1" style="stop-color: #1d120e" id="stop64" />
        </linearGradient>
        <path
          style="
            fill: url(#SVGID_00000115476925131693172530000009427750439713679034_);
          "
          d="m 550.6,288.31 c -1.91,-3.44 -2.13,-9.61 -2.78,-10.92 -0.66,-1.31 -11.63,-5.46 -41.09,-11.33 -29.45,-5.88 -47.01,-4.44 -50.37,-2.43 0,0 0.24,-3.92 6.03,-5.33 5.8,-1.41 19.38,-1.29 43.24,2.59 23.86,3.88 45.13,10.69 47.01,13.51 1.88,2.82 -2.04,13.91 -2.04,13.91 z"
          id="path64"
        />
      </g>
    </g>
  </g>
</svg>
