<svg class="normal-image" width="350" height="350" xmlns:xlink="http://www.w3.org/1999/xlink" xmlns="http://www.w3.org/2000/svg"><style type="text/css" id="style1">.st18{fill:#fff}.st28{fill:#ffd29b}.st78{fill:#663900}.st86{fill:#efa274}.st93{fill:#c55a4a}.st97{fill:#6fa5c7}.st98{fill:#c65849}</style><g id="g66" transform="translate(-307.972 -75.495)"><g id="g65"><g id="g64"><path d="M384.69 187.74s-12.17 11.18-13.65 16.28c-1.78 22.46 12.46 52.73 13.65 52.75 1.2.02 13.1-17.67 14.64-20.05 1.54-2.37 9.11-28.47 9.26-30.86.15-2.39-23.9-18.12-23.9-18.12z" id="path1" fill="#eee" stroke="#633803" stroke-width="3.059" stroke-miterlimit="10"/><path d="M386.39 195.21s-6.72 7.47-8.65 11.87c-1.51 20.66 8.65 31.87 8.65 31.87s18.88-6.72 18.8-9.38c-.08-2.66.17-17.18 0-18.59-.17-1.41-18.8-15.77-18.8-15.77z" id="path2" fill="#ccc"/><path class="st28" d="M395.26 220.91s-9.41 12.89-17.52 30.32l-9.7 35.88s-5.67 1.97-12.28 15.47c-6.62 13.5-1.71 31.39 2.68 38.99 4.39 7.6 17.35 26.41 45.08 45.07 27.73 18.66 42.54 23.01 74.85 20.54 32.31-2.47 63.65-28.67 74.72-47.94 11.07-19.27 26.57-109.89 15.06-125.98-11.52-16.09-71.61-42.86-96.43-41.7-24.84 1.18-76.46 29.35-76.46 29.35z" id="path3"/><linearGradient id="SVGID_00000106844506746660740050000004990194881810508467_" gradientUnits="userSpaceOnUse" x1="394.897" y1="244.774" x2="432.498" y2="243.834"><stop offset="0" id="stop3" stop-color="#ffbe88"/><stop offset="1" id="stop4" stop-color="#fcac77"/></linearGradient><path d="M425.82 224.48s18.16 16.27 6.58 35.55c-11.58 19.28-52.81-7.52-52.81-7.52s15.98-27.93 24.6-30.26c8.62-2.33 21.63 2.23 21.63 2.23z" id="path4" fill="url(#SVGID_00000106844506746660740050000004990194881810508467_)"/><linearGradient id="SVGID_00000029758292394947621010000017126760711209507764_" gradientUnits="userSpaceOnUse" x1="444.291" y1="314.542" x2="574.57" y2="326.241"><stop offset="0" id="stop5" stop-color="#ffbe88"/><stop offset="1" id="stop6" stop-color="#fcac77"/></linearGradient><path d="M475.98 233.16s-17 7.97-18.19 28.3c-.38 6.57-4.46 42.4-4.01 76.9.26 19.94-26.24 47.79-21.37 60.91 3.78 10.21 37.7 8.2 45.97 7.92 51.31-1.75 78.97-54.49 78.97-54.49s10.97-53.22 7.68-65.58c-3.29-12.36 10.81-30.86-12.69-48.16-23.5-17.32-76.36-5.8-76.36-5.8z" id="path6" fill="url(#SVGID_00000029758292394947621010000017126760711209507764_)"/><path class="st28" d="M472.18 313.96s22.62-8.88 42.49-3.5c19.87 5.38 23.82 18.58 23.52 24.07-.3 5.49-7.91 27.54-31.48 45.49-23.57 17.95-41.67 28.44-63.72 24.64-22.05-3.8-76.54-39.7-84.54-63.08-21.26-62.13 32.98-64.78 75.99-60.86 43.01 3.92 37.74 33.24 37.74 33.24z" id="path7"/><linearGradient id="SVGID_00000114031354213575973890000006896564109968748934_" gradientUnits="userSpaceOnUse" x1="356.471" y1="329.31" x2="388.733" y2="323.755"><stop offset="0" id="stop7" stop-color="#fff7d3"/><stop offset="1" id="stop8" stop-color="#ffd29b"/></linearGradient><path d="M408.58 268.41c-9.87 23.77-18.99 107.73-18.99 107.73s-36.55-28.88-37.06-55.5c-.51-26.62 30.23-52.23 56.05-52.23z" id="path8" fill="url(#SVGID_00000114031354213575973890000006896564109968748934_)"/><path d="M395.26 220.91s-9.41 12.89-17.52 30.32l-9.7 35.88s-5.67 1.97-12.28 15.47c-6.62 13.5-1.71 31.39 2.68 38.99 4.39 7.6 17.35 26.41 45.08 45.07 27.73 18.66 42.54 23.01 74.85 20.54 32.31-2.47 63.65-28.67 74.72-47.94 11.07-19.27 26.57-109.89 15.06-125.98-11.52-16.09-71.61-42.86-96.43-41.7-24.84 1.18-76.46 29.35-76.46 29.35z" id="path9" fill="none" stroke="#f08267" stroke-width="3.035" stroke-miterlimit="10"/><g id="g17"><path d="M563.12 97.19c-30.52-7.61-71.24 4.23-107.71 31.37 4.12-5.98 13.21-16.65 8.89-31.45-9.38 14.15-21.56 27.45-46.59 32.83-25.04 5.38-40.41 21.07-39.95 37.68.46 16.61 10.97 47.06 59.65 67.51 11.28-2.92 22.02-5.31 40.72-14.99 31.53 3.38 66.37 10.69 84.92 34.83 1.55 5.07 4.48 25.53-5.87 58.13 10.35-3.54 24.97-14.92 24.97-14.92 7.48-14.61 18.92-39.22 21.85-45.67 2.94-6.46 5.41-13.42-4.64-19.24-10.05-5.82-24.42-9.97-24.42-9.97 6.03-7.38 13.44-27.68-.77-40.91-14.22-13.23-36.16-17.22-36.16-17.22 4.48-4.46 13.91-15.07 21.38-18.81-11.85-1.44-19.88-.21-31.78 5.49 5.38-7.74 19.63-18.2 35.29-23.84-4.33-1.33-26.19-5.28-46.67 6.02 8.64-21.31 38.25-33.34 46.89-36.84z" id="path10" fill="#eee" stroke="#ed1c24" stroke-width="3.059" stroke-miterlimit="10"/><g id="g16"><g id="g13"><defs id="defs10"><path id="SVGID_00000134232996269269810510000009802329604289450140_" d="M563.12 97.19c-30.52-7.61-71.24 4.23-107.71 31.37 4.12-5.98 13.21-16.65 8.89-31.45-9.38 14.15-21.56 27.45-46.59 32.83-25.04 5.38-40.41 21.07-39.95 37.68.46 16.61 10.97 47.06 59.65 67.51 11.28-2.92 22.02-5.31 40.72-14.99 31.53 3.38 66.37 10.69 84.92 34.83 1.55 5.07 4.48 25.53-5.87 58.13 10.35-3.54 24.97-14.92 24.97-14.92 7.48-14.61 18.92-39.22 21.85-45.67 2.94-6.46 5.41-13.42-4.64-19.24-10.05-5.82-24.42-9.97-24.42-9.97 6.03-7.38 13.44-27.68-.77-40.91-14.22-13.23-36.16-17.22-36.16-17.22 4.48-4.46 13.91-15.07 21.38-18.81-11.85-1.44-19.88-.21-31.78 5.49 5.38-7.74 19.63-18.2 35.29-23.84-4.33-1.33-26.19-5.28-46.67 6.02 8.64-21.31 38.25-33.34 46.89-36.84z"/></defs><clipPath id="SVGID_00000119091086970772246040000000232624810604822693_"><use xlink:href="#SVGID_00000134232996269269810510000009802329604289450140_" id="use10" overflow="visible"/></clipPath><radialGradient id="SVGID_00000114047348504151391890000016393599043257518241_" cx="493.145" cy="237.577" r="118.995" fx="490.453" fy="235.858" gradientTransform="matrix(1.0049 0 0 1 -1.795 0)" gradientUnits="userSpaceOnUse"><stop offset=".389" id="stop10" stop-color="#a86900"/><stop offset=".514" id="stop11" stop-color="#a36300"/><stop offset=".678" id="stop12" stop-color="#945300"/><stop offset=".773" id="stop13" stop-color="#894600"/></radialGradient><path d="M435.92 234.89c-14.42-8.29-38.02-32.18-36.88-55.76.43-8.92 2.99-17.94 11.95-25.53 8.96-7.59 33.38-17.53 38.12-26.86-4.69 9.59-10.87 17.02-18.49 25.17-7.62 8.15-10.77 18.15-11.74 27.89-.98 9.74 3.04 19.74 3.04 19.74 1.18-8.82 2.42-21.17 14.01-36.63s22.41-23.99 36.93-31.45c14.53-7.46 35.16-15.3 51.62-18.38-13.21 9.61-31.32 23.45-40.33 55.9 8.96-14.07 20.9-30 34.44-36.03-6.08 10.12-13.65 19.73-20.07 44.11 6.1-5.92 26.59-22.84 48.84-21.3-12.67 12.23-19.01 18.53-24.19 24.61 9.58-1.31 34.08-5.15 41.96 14.07 7.88 19.22-2.5 33.29-7.42 41.91 5.72-4.31 17.93-8.61 26.58 2.77 8.65 11.38.31 30.68-13.52 42.37 4.48-1.69 15.07-8.77 15.07-8.77-3.17 10.92-8.27 26.3-8.27 26.3l-11.67 6.54c-3.71-5.92-8.04-12.76-8.04-12.76s2.16-17.53 2.32-27.07c.16-9.54-13.14-22.76-22.72-26.14-9.58-3.38-56.25-14.15-67.69-9.23-11.44 4.9-33.85 4.53-33.85 4.53z" clip-path="url(#SVGID_00000119091086970772246040000000232624810604822693_)" id="path13" fill="#ccc"/></g><path d="M563.12 97.19c-30.52-7.61-71.24 4.23-107.71 31.37 4.12-5.98 13.21-16.65 8.89-31.45-9.38 14.15-21.56 27.45-46.59 32.83-25.04 5.38-40.41 21.07-39.95 37.68.46 16.61 10.97 47.06 59.65 67.51 11.28-2.92 22.02-5.31 40.72-14.99 31.53 3.38 66.37 10.69 84.92 34.83 1.55 5.07 4.48 25.53-5.87 58.13 10.35-3.54 24.97-14.92 24.97-14.92 7.48-14.61 18.92-39.22 21.85-45.67 2.94-6.46 5.41-13.42-4.64-19.24-10.05-5.82-24.42-9.97-24.42-9.97 6.03-7.38 13.44-27.68-.77-40.91-14.22-13.23-36.16-17.22-36.16-17.22 4.48-4.46 13.91-15.07 21.38-18.81-11.85-1.44-19.88-.21-31.78 5.49 5.38-7.74 19.63-18.2 35.29-23.84-4.33-1.33-26.19-5.28-46.67 6.02 8.64-21.31 38.25-33.34 46.89-36.84z" id="path14" fill="none" stroke="#633803" stroke-width="3.059" stroke-miterlimit="10"/><g id="g15"><path d="M477.52 218.73c12.67-5.69 24.14-15.04 31.16-27.16-1.54 3.2-3.38 6.25-5.49 9.13-6.52 8.58-14.88 15.82-24.46 20.84l-1.21-2.81z" id="path15" fill="#633803"/></g></g></g><g id="g18"><path class="st78" d="M471.71 235.9c11.9-18.38 28.74-25.53 48.37-22.15 19.63 3.38 28.36 16.61 29.83 22.15-1.24 5.46-9.74 14.23-13.99 17.69-8.5-13.61-27.74-27.07-64.21-17.69z" id="path17"/><path class="st78" d="M393.82 231.44c9.27-6.97 31.73-7.38 42.34 12.82-.82-19.27-11.02-49.72-46.16-36.19-1.02 5.22-.3 15.48 3.82 23.37z" id="path18"/></g><path d="M532.57 317.65v1.79l6.29 6.49s9.52-21.62 11.17-28.69c0 0 7.57-2.5 7.7-2.76.13-.26 2.95-8.79 3.34-12.39.39-3.59-4.69-6.23-4.69-6.23l-7.9 9.89-8.09 15.15z" id="path19" fill="#e88b60"/><path d="M541.67 296.84l17.46 12.92 5.38-5.01-9.44-18.24s-6.33 2.05-6.48 2.05z" id="path20" fill="#1d0b07"/><g id="g31"><path d="M545.18 356.46l5.22-35.76c6.58-9.04 23.42-33.76 51-27.38 13.22 3.06 13.54 32.82-1.53 51.82-15.07 19-37.85 28.72-54.69 11.32z" id="path21" fill="#ffcc95"/><linearGradient id="SVGID_00000071549730963541794110000001669806168629754275_" gradientUnits="userSpaceOnUse" x1="572.203" y1="287.867" x2="581.708" y2="318.242"><stop offset=".206" id="stop21" stop-color="#fef4d1"/><stop offset=".409" id="stop22" stop-color="#fef1cc"/><stop offset=".645" id="stop23" stop-color="#fee8be"/><stop offset=".898" id="stop24" stop-color="#ffd9a7"/><stop offset="1" id="stop25" stop-color="#ffd29b"/></linearGradient><path d="M550.73 321.72c-.87 2 0 4.41 2.01 5.19 1.54.6 3.78.65 6.67-.27 6.36-2.02 14.9-10.15 19.79-13 4.88-2.85 12.72-4.46 15.87-.93 3.15 3.53 2.79 16 8.19 16.14 5.4.15 6.72-4.29 6.72-4.29.91-5.89 5.69-28.35-11.39-32.07-16.41-3.58-42.67 17.35-47.86 29.23z" id="path25" fill="url(#SVGID_00000071549730963541794110000001669806168629754275_)"/><g id="g26"><path d="M550.13 321.17c5.79-13.84 20.81-25.98 35.23-29.87 6.87-1.8 15-1.49 21.01 2.77 4.31 3.32 6.04 9.03 6.59 13.99 1.54 16.12-5.42 32-16.37 43.61-6.76 7.36-15.59 13.23-25.58 14.91-10.48 2.29-20.38-1.88-26.35-10.68 2.97 2.55 6.12 4.78 9.54 6.3 6.83 3.23 14.7 2.44 21.62-.1 10.71-3.9 18.93-12.37 25.36-21.64 6.14-9.3 9.65-20.87 8.54-32.04-.56-4.49-1.87-8.98-5.35-11.73-5.31-3.57-12.1-3.75-18.22-2.24-14.71 3.95-26.81 14.73-36.02 26.72z" id="path26" fill="#f08068"/></g><linearGradient id="SVGID_00000043440532615610539420000004469208768358549688_" gradientUnits="userSpaceOnUse" x1="559.146" y1="335.164" x2="597.819" y2="334.35"><stop offset=".514" id="stop26" stop-color="#ed8353"/><stop offset=".571" id="stop27" stop-color="#f08a5a" stop-opacity=".964"/><stop offset=".743" id="stop28" stop-color="#f69a69" stop-opacity=".854"/><stop offset=".876" id="stop29" stop-color="#f8a06e" stop-opacity=".77"/></linearGradient><path d="M563.84 352.95c14.55 2.38 34.84-9.48 32.06-30.74-.7-5.32-8.55-7.49-14.71-4.64-6.16 2.85-12.87 11.27-12.87 11.27 6.26.02 8.93 2.68 7.82 8.76-1.11 6.08-8.99 13.23-12.3 15.35z" id="path29" fill="url(#SVGID_00000043440532615610539420000004469208768358549688_)"/><g id="g30"><path d="M563.84 352.69c4.68-3.1 8.12-8.03 10.28-13.07 2.05-5.3 1.18-10.21-5.57-9.09l-3.59.57 1.89-3.15c3.67-5.82 8.94-10.32 15.54-12.41 6.77-2.01 15.67 1.91 13.86 10.05-.32-6.99-7.1-9.25-12.97-7.23-5.37 2.11-10.26 6.62-13.48 11.35l-1.7-2.58c3.31-.5 7.68.45 9.17 3.9 3.2 7.94-6 19.59-13.43 21.66z" id="path30" fill="#c55a48"/></g></g><path class="st86" d="M450.04 302.09c-8.99-3.44-18.55-3.33-18.55-3.33l-1.17 3.97s-6.79-5.16-5.79-6.17c1-1.01 3.22-4.22 3.22-4.22s11.32.58 11.9.7c.58.12 7.7 2.23 8.17 3.01.47.78 2.28 4.28 2.22 4.46-.06.18 0 1.58 0 1.58z" id="path31"/><path class="st14" d="M429.59 281.05s5.23-.98 11.92.41c6.7 1.39 10.12 2.69 10.12 2.69v17.13s-5.39-4.45-13.88-5.65c-8.49-1.2-11.35-.83-11.35-.83z" id="path32"/><path class="st86" d="M475.42 316.47l1.57.79s-3.2 2.98-4.31 4.73c0 0-15.17-3.97-19.9-6.42v-4.47z" id="path33"/><linearGradient id="SVGID_00000119088591036552712810000010727982433146703758_" gradientUnits="userSpaceOnUse" x1="502.248" y1="308.86" x2="502.609" y2="325.3"><stop offset="0" id="stop33" stop-color="#fff7d3"/><stop offset="1" id="stop34" stop-color="#ffd29b"/></linearGradient><path d="M479.36 315.49c-4.98 3.55-7.06 7.72-7.06 7.72l-2.8 5.7 66.3-3.81s-4.06-8.49-14.09-12.38c-10.03-3.87-26.35-7.48-42.35 2.77z" id="path34" fill="url(#SVGID_00000119088591036552712810000010727982433146703758_)"/><path class="st14" d="M474.94 319.14s-17.05-2.86-25.79-8.05c0 0-.39-17.62.94-29.92s4.5-22.33 6.8-23.97c2.29-1.65 10.59-3.76 33.16-1.72 22.56 2.04 45.75 8.77 55.93 13.08 10.18 4.31 11.52 7.21 11.36 9.32-.16 2.11-2.27 8.62-2.27 8.62l-10.42 11.28-9.56 24.2-9.41-7.8s-12.05-6.21-24.11-5.27c-12.07.94-24.5 7.07-26.63 10.23z" id="path35"/><path class="st18" d="M537.34 285.33s-8 22.77-11.67 28.85c0 0-10.32-6.75-23.41-5.89-13.08.85-18.91 4.86-18.91 4.86s-18.07-2.67-27.55-6.67c0 0 3.45-26.87 7.99-39.4 0 0 25.78-.24 47.55 6.5 16.73 5.17 23.09 9.34 25.15 10.99.62.49.85.76.85.76z" id="path36"/><linearGradient id="SVGID_00000072964419296885070380000018200113221741273529_" gradientUnits="userSpaceOnUse" x1="526.103" y1="300.443" x2="460.457" y2="314.543"><stop offset="0" id="stop36" stop-color="#c0e7ee"/><stop offset="1" id="stop37" stop-color="#f0fafb"/></linearGradient><path d="M537.34 285.33s-8 22.77-11.67 28.85c0 0-10.32-6.75-23.41-5.89-13.08.85-18.91 4.86-18.91 4.86s-18.07-2.67-27.55-6.67l80.68-21.92c.63.5.86.77.86.77z" id="path37" fill="url(#SVGID_00000072964419296885070380000018200113221741273529_)"/><linearGradient id="SVGID_00000091006821191563531730000015190060069514301623_" gradientUnits="userSpaceOnUse" x1="491.847" y1="291.323" x2="491.847" y2="305.377"><stop offset="0" id="stop38" stop-color="#1d120e"/><stop offset="1" id="stop39" stop-color="#0087c3"/></linearGradient><path d="M505.63 296.15c0 5.01-2.1 9.46-5.38 12.3-4.3.36-8.4 1.3-12.11 2.65-5.82-1.82-10.08-7.82-10.08-14.95 0-8.57 6.17-15.52 13.78-15.52 7.62 0 13.79 6.95 13.79 15.52z" id="path39" fill="url(#SVGID_00000091006821191563531730000015190060069514301623_)" stroke="#1d120e" stroke-width="1.579" stroke-miterlimit="10"/><ellipse class="st14" cx="491.6" cy="296.56" rx="7.61" ry="8.25" id="ellipse39"/><circle class="st18" cx="497.89" cy="302.4" r="2.41" id="circle39"/><ellipse class="st18" cx="485.64" cy="288.34" rx="6.28" ry="7.71" id="ellipse40"/><linearGradient id="SVGID_00000041256137864990434630000003582261876934421127_" gradientUnits="userSpaceOnUse" x1="394.205" y1="305.772" x2="369.986" y2="304.716"><stop offset="0" id="stop40" stop-color="#faa36e"/><stop offset="1" id="stop41" stop-color="#ffd29b"/></linearGradient><path d="M368.05 299.53s.08 2.37.63 3.05c.55.68 8.27 3.4 16.81 5.81 8.54 2.41 11.59 2.61 11.59 2.61l.4-4.5z" id="path41" fill="url(#SVGID_00000041256137864990434630000003582261876934421127_)"/><path class="st14" d="M431.38 280.47c-2.83 10.42-4.08 16.14-5.1 18.49 0 0-10.55-6.11-17.69-2.55-7.15 3.55-10.78 11.56-10.78 11.56s-2.83-.63-6.53-1.48c-4.84-1.1-11.2-2.57-14.66-3.46-6.12-1.57-11.21-3.76-11.98-5.25-.17-.32-.29-1.15-.38-2.33-.34-4.41-.17-13.65.13-18.91.4-6.65.42-10.42.42-10.42s-5.25-1.06-5.55-2.19c-.3-1.12.45-12.68.9-16.43s1.8-4.2 8.03-4.27c6.23-.07 24.41 1.59 40.15 4.64 15.74 3.06 24.51 6.67 24.83 7.92.32 1.26 1.03 14.27-1.79 24.68z" id="path42"/><path class="st18" d="M424.4 269.78c-.28 6.9-1.15 18.42-3.82 26.8-20.42-1.36-20.61 4.71-20.61 4.71s-18.54-3.07-26.17-7.75c-.06-.04-.12-.07-.18-.11 0 0-1.08-21.8 2.77-36.45 0 0 14.72-1.17 30.27 1.87 15.55 3.05 17.87 5 17.87 5s.01 2.34-.13 5.93z" id="path43"/><linearGradient id="SVGID_00000067203059734644077420000008597303748316712369_" gradientUnits="userSpaceOnUse" x1="423.655" y1="282.152" x2="387.742" y2="299.662"><stop offset="0" id="stop43" stop-color="#c0e7ee"/><stop offset="1" id="stop44" stop-color="#f0fafb"/></linearGradient><path d="M424.4 269.78c-.28 6.9-1.15 18.42-3.82 26.8-20.42-1.36-20.61 4.71-20.61 4.71s-18.54-3.07-26.17-7.75z" id="path44" fill="url(#SVGID_00000067203059734644077420000008597303748316712369_)"/><linearGradient id="SVGID_00000091729943132884299770000000180997015135259264_" gradientUnits="userSpaceOnUse" x1="406.656" y1="281.98" x2="406.656" y2="294.766"><stop offset="0" id="stop45" stop-color="#1d120e"/><stop offset="1" id="stop46" stop-color="#0087c3"/></linearGradient><path d="M419.51 286.73c0 3.37-1.01 6.46-2.72 8.91-.32.46-4.23-.31-7.79.66-3.8 1.04-7.26 3.81-7.55 3.66-4.5-2.25-7.64-7.33-7.64-13.23 0-8 5.75-14.48 12.86-14.48 7.09 0 12.84 6.48 12.84 14.48z" id="path46" fill="url(#SVGID_00000091729943132884299770000000180997015135259264_)" stroke="#1d120e" stroke-width="1.472" stroke-miterlimit="10"/><ellipse class="st14" cx="406.43" cy="287.11" rx="7.1" ry="7.7" id="ellipse46"/><circle class="st18" cx="412.29" cy="292.56" r="2.25" id="circle46"/><ellipse class="st18" cx="400.87" cy="279.45" rx="5.86" ry="7.19" id="ellipse47"/><g id="g47"><path class="st93" d="M472.96 321.57c3.19-5.37 8.84-8.86 14.51-11.23 11.58-4.7 25.4-4.47 36.4 1.71 5.43 3.05 10.07 7.42 13.48 12.59-4.34-4.36-9.21-8-14.57-10.51-10.76-5.1-23.26-5.29-34.52-1.69-5.66 1.9-11.27 4.61-15.3 9.13z" id="path47"/></g><linearGradient id="SVGID_00000140716052003160558430000016333397199457422465_" gradientUnits="userSpaceOnUse" x1="500.137" y1="325.788" x2="489.483" y2="346.468"><stop offset="0" id="stop47" stop-color="#faa36e"/><stop offset="1" id="stop48" stop-color="#ffd29b"/></linearGradient><path d="M476.25 341.72c3.84-9.92 10.57-14.74 17.59-14.48 7.02.26 9.49 4.6 10.5 9.96 1.01 5.36-.3 16.22-7.04 22.35-6.74 6.13-21.05-17.83-21.05-17.83z" id="path48" fill="url(#SVGID_00000140716052003160558430000016333397199457422465_)"/><linearGradient id="SVGID_00000059309021861422131400000007403504780069095318_" gradientUnits="userSpaceOnUse" x1="442.76" y1="401.158" x2="445.58" y2="389.877"><stop offset="0" id="stop49" stop-color="#fff7d3"/><stop offset="1" id="stop50" stop-color="#ffd29b"/></linearGradient><path d="M422.99 379.41c1.68 8.3 3.13 18.13 18.02 19.64 14.88 1.51 30.86-5.38 29.45-8.83-1.41-3.45-9.87-13.16-9.87-13.16z" id="path50" fill="url(#SVGID_00000059309021861422131400000007403504780069095318_)"/><g id="g54"><path d="M409.89 340.94l8.87 17.11-4.98 18.05c16.81 9.34 25.32 10.94 35.89 10.48 11.83-.52 36.1-11.31 50.94-55.81-13.07 9.64-49.64 28.75-90.72 10.17z" id="path51" fill="#fff" stroke="#6fa5c7" stroke-width="1.625" stroke-linejoin="round" stroke-miterlimit="10"/><g id="g52"><path class="st97" d="M419.31 357.45c.94.75 2.79 1.2 4.07 1.56 4.63 1.14 9.38 1.85 14.15 2.04-4.81.21-9.65-.1-14.41-.85-1.78-.39-3.24-.44-4.92-1.56l1.11-1.19z" id="path52"/></g><g id="g53"><path class="st97" d="M463.99 361.06c8.95-.81 19.12-1.38 26.03-7.74l1.12 1.18c-7.51 6.22-17.92 6.27-27.15 6.56z" id="path53"/></g></g><g id="g55"><path class="st98" d="M388.73 327.92c28.01 21.58 67.66 26.02 98.93 8.96 4.4-2.34 8.63-4.99 12.69-7.89l1.77 2.41c-4.15 3.02-8.47 5.8-13 8.24-32.07 17.5-73.25 12.67-100.39-11.72z" id="path54"/></g><g id="g56"><path class="st98" d="M488.47 327.92c7.98-4.26 16.22-1.19 16.98 8.3.23 2.45-.13 4.85-.8 7.14-2.8-11.45-3.2-15.22-16.18-15.44z" id="path55"/></g><g id="g57"><path d="M424.67 387.71c3.88 7.5 11.86 10 19.74 9.67 7.99-.14 15.88-2.51 23.72-4.17-3.56 2.12-7.35 3.81-11.27 5.17-3.99 1.16-8.09 2.24-12.38 2.25-8.48.42-18.29-3.76-19.81-12.92z" id="path56" fill="#f08267"/></g><linearGradient id="SVGID_00000178896633884891720960000017579457405039968388_" gradientUnits="userSpaceOnUse" x1="432.963" y1="320.44" x2="399.633" y2="318.987"><stop offset="0" id="stop57" stop-color="#faa36e"/><stop offset="1" id="stop58" stop-color="#ffd29b"/></linearGradient><path d="M397.74 306.49c14.45 14.35 39.49 20.23 39.49 20.23s-4.99 6.22-17.16 5.57c-12.17-.66-17.67-6.95-21.07-15.11-3.4-8.16-1.26-10.69-1.26-10.69z" id="path58" fill="url(#SVGID_00000178896633884891720960000017579457405039968388_)"/><g id="g59"><path class="st93" d="M432.4 306.27c-5.22-5.16-11.34-9.07-18.71-8.85-9.6.11-15.64 7.41-14.23 16.81 1.08 9.05 9.68 14.93 18.17 16.42 3.65.71 7.31.85 11.08.98-1.77.8-3.66 1.29-5.6 1.55-11.8 1.63-25.63-5.84-27.2-18.46-.96-6.16.82-13.02 6-16.99 5.02-3.79 11.75-4.58 17.76-3.27 5.86 1.44 10.99 6.04 12.73 11.81z" id="path59"/></g><linearGradient id="SVGID_00000084502590093909482140000005088045329263068346_" gradientUnits="userSpaceOnUse" x1="395.821" y1="244.101" x2="396.996" y2="261.413"><stop offset="0" id="stop59" stop-color="#655d5a"/><stop offset="1" id="stop60" stop-color="#1d120e"/></linearGradient><path d="M362.26 259.06s3.12-9.32 4.35-9.88c1.23-.56 14.86-.52 35.07 2.77s28.04 8.15 28.04 8.15.78 2.74.78 2.27c0-.47.86-5.17.86-5.17s.78-3.73-28.59-8.29c-29.38-4.56-38.07-3.85-38.93-3.77-.86.08-1.8 1.65-2.12 3.68-.3 2.04.54 10.24.54 10.24z" id="path60" fill="url(#SVGID_00000084502590093909482140000005088045329263068346_)"/><linearGradient id="SVGID_00000149356242961378481750000005906928895574446506_" gradientUnits="userSpaceOnUse" x1="355.805" y1="286.357" x2="373.274" y2="298.812"><stop offset="0" id="stop61" stop-color="#655d5a"/><stop offset="1" id="stop62" stop-color="#1d120e"/></linearGradient><path d="M391.27 306.49c-4.84-1.1-11.2-2.57-14.66-3.46-6.12-1.57-11.21-3.76-11.98-5.25-.17-.32-.29-1.15-.38-2.33.61-1.04 1.36-1.25 1.43-1.14.11.18 13.04 6 19.44 8.46 3.57 1.38 5.34 2.77 6.15 3.72z" id="path62" fill="url(#SVGID_00000149356242961378481750000005906928895574446506_)"/><linearGradient id="SVGID_00000115476925131693172530000009427750439713679034_" gradientUnits="userSpaceOnUse" x1="507.083" y1="260.133" x2="504.733" y2="271.178"><stop offset="0" id="stop63" stop-color="#655d5a"/><stop offset="1" id="stop64" stop-color="#1d120e"/></linearGradient><path d="M550.6 288.31c-1.91-3.44-2.13-9.61-2.78-10.92-.66-1.31-11.63-5.46-41.09-11.33-29.45-5.88-47.01-4.44-50.37-2.43 0 0 .24-3.92 6.03-5.33 5.8-1.41 19.38-1.29 43.24 2.59 23.86 3.88 45.13 10.69 47.01 13.51 1.88 2.82-2.04 13.91-2.04 13.91z" id="path64" fill="url(#SVGID_00000115476925131693172530000009427750439713679034_)"/></g></g></g></svg>