<?xml version="1.0" encoding="UTF-8"?>
<svg xmlns="http://www.w3.org/2000/svg" xmlns:xlink="http://www.w3.org/1999/xlink" part="edje-spinner--normal-image" version="1.1" id="Layer_1" x="0px" y="0px" width="100%" viewBox="0 0 462 410" xml:space="preserve">
<path fill="transparent" opacity="1.000000" stroke="none" d=" M174.000000,1.000000   C270.300781,1.000000 366.601562,1.000000 462.951172,1.000000   C462.951172,137.587906 462.951172,274.175842 462.951172,410.881897   C309.000061,410.881897 155.000046,410.881897 1.000015,410.887207   C1.000000,368.573608 1.000000,326.254639 1.457077,283.351807   C97.044891,282.743561 192.175629,282.717529 287.306366,282.695709   C323.126404,282.687500 358.946686,282.630585 394.766205,282.766296   C398.879883,282.781860 400.851837,281.917633 401.718445,277.419434   C406.625092,251.951752 411.908722,226.556763 417.042145,201.132614   C417.839935,197.181458 418.525482,193.207657 419.417999,188.410645   C324.521576,188.410645 230.671890,188.410645 136.440598,188.410645   C136.748672,185.903412 136.845459,184.095596 137.204666,182.341507   C146.044479,139.176605 154.949829,96.025101 163.756195,52.853405   C167.277527,35.590706 170.591599,18.285732 174.000000,1.000000  M175.528534,127.007339   C173.328949,137.863327 171.129364,148.719330 168.914307,159.651611   C254.748062,159.651611 340.110931,159.651611 425.529846,159.651611   C431.889435,128.406326 438.183258,97.484268 444.542603,66.240067   C358.838043,66.240067 273.612061,66.240067 187.917053,66.240067   C183.868576,86.192780 179.810837,106.191200 175.528534,127.007339  M382.281128,371.825928   C386.394440,351.683014 390.507782,331.540100 394.688812,311.065674   C308.862061,311.065674 223.644485,311.065674 138.069733,311.065674   C131.702408,342.305603 125.352524,373.459930 118.987633,404.687866   C204.838501,404.687866 290.206879,404.687866 375.652527,404.687866   C377.841583,393.819977 379.972839,383.238892 382.281128,371.825928  z"></path>
<path fill="#97C93F" opacity="1.000000" stroke="none" d=" M173.531342,1.000000   C170.591599,18.285732 167.277527,35.590706 163.756195,52.853405   C154.949829,96.025101 146.044479,139.176605 137.204666,182.341507   C136.845459,184.095596 136.748672,185.903412 136.440598,188.410645   C230.671890,188.410645 324.521576,188.410645 419.417999,188.410645   C418.525482,193.207657 417.839935,197.181458 417.042145,201.132614   C411.908722,226.556763 406.625092,251.951752 401.718445,277.419434   C400.851837,281.917633 398.879883,282.781860 394.766205,282.766296   C358.946686,282.630585 323.126404,282.687500 287.306366,282.695709   C192.175629,282.717529 97.044891,282.743561 1.457077,282.883972   C1.000000,278.643097 1.000000,274.286194 1.265860,269.198181   C3.696817,258.066956 5.897769,247.674164 8.020978,237.265533   C18.839600,184.229385 29.654329,131.192429 40.436691,78.148888   C45.662567,52.440338 50.814556,26.716768 56.000000,1.000000   C95.020897,1.000000 134.041794,1.000000 173.531342,1.000000  z"></path>
<path fill="transparent" opacity="1.000000" stroke="none" d=" M55.531342,1.000000   C50.814556,26.716768 45.662567,52.440338 40.436691,78.148888   C29.654329,131.192429 18.839600,184.229385 8.020978,237.265533   C5.897769,247.674164 3.696817,258.066956 1.265860,268.733521   C1.000000,179.787781 1.000000,90.575577 1.000000,1.000000   C19.019266,1.000000 37.040974,1.000000 55.531342,1.000000  z"></path>
<path fill="#4D4E50" opacity="1.000000" stroke="none" d=" M175.640808,126.598480   C179.810837,106.191200 183.868576,86.192780 187.917053,66.240067   C273.612061,66.240067 358.838043,66.240067 444.542603,66.240067   C438.183258,97.484268 431.889435,128.406326 425.529846,159.651611   C340.110931,159.651611 254.748062,159.651611 168.914307,159.651611   C171.129364,148.719330 173.328949,137.863327 175.640808,126.598480  z"></path>
<path fill="#4D4E50" opacity="1.000000" stroke="none" d=" M382.192627,372.241882   C379.972839,383.238892 377.841583,393.819977 375.652527,404.687866   C290.206879,404.687866 204.838501,404.687866 118.987633,404.687866   C125.352524,373.459930 131.702408,342.305603 138.069733,311.065674   C223.644485,311.065674 308.862061,311.065674 394.688812,311.065674   C390.507782,331.540100 386.394440,351.683014 382.192627,372.241882  z"></path>
</svg>
